<svg width="21" height="17" viewBox="0 0 21 17" fill="none" xmlns="http://www.w3.org/2000/svg">
<path d="M10.1725 5.3322H0V4.11717H4.47533V1.40568L5.93228 0L6.82851 0.865752L5.74721 1.91374V4.11717H10.1742L10.1725 5.3322ZM7.6958 15.7306C6.14793 14.2249 5.23169 12.2201 5.12266 10.102V9.02336H9.19297L9.51791 5.95912L0.7491 5.95892L1.91789 17H7.86407L7.8564 15.8483C7.83447 15.8269 7.71864 15.7519 7.69564 15.7306L7.6958 15.7306ZM13.3678 9.63598H5.75789V10.0693C5.87629 12.2577 6.91518 14.3047 8.63449 15.7373H8.60277L8.62257 16.9996L18.1437 16.9994L18.1219 15.7383L18.1221 15.7385C19.8421 14.3062 20.8814 12.2585 21 10.0694V9.63614L13.3678 9.63598ZM20.1458 6.2293C20.2925 6.0896 20.3728 5.8975 20.3677 5.69862C20.3626 5.49974 20.2727 5.31177 20.119 5.17926C19.9655 5.04654 19.7617 4.981 19.5564 4.99826C19.3509 5.01531 19.1621 5.11351 19.0343 5.26966L15.9224 9.02251H17.8037L20.1458 6.2293Z" fill="#1D1D1D"/>
</svg>
